<svg width="128" height="128" viewBox="0 0 128 128" fill="none" xmlns="http://www.w3.org/2000/svg">
  <defs>
    <linearGradient id="brainGradient" x1="0" y1="0" x2="128" y2="128" gradientUnits="userSpaceOnUse">
      <stop stop-color="#4F46E5"/>
      <stop offset="1" stop-color="#06B6D4"/>
    </linearGradient>
  </defs>
  <g>
    <!-- Magnet-like U shape representing "Mag" -->
    <path d="M32 72c0-22 14-40 32-40s32 18 32 40v16a16 16 0 01-32 0v-16" stroke="url(#brainGradient)" stroke-width="8" stroke-linecap="round" stroke-linejoin="round" fill="none"/>
    <!-- Brain lines -->
    <path d="M64 32c8 0 14 6 14 14 0 4-2 8-6 11m-8-25c-8 0-14 6-14 14 0 4 2 8 6 11" stroke="url(#brainGradient)" stroke-width="4" stroke-linecap="round" stroke-linejoin="round" fill="none"/>
    <!-- Small nodes/circles for AI -->
    <circle cx="50" cy="44" r="3" fill="#4F46E5"/>
    <circle cx="78" cy="44" r="3" fill="#06B6D4"/>
    <circle cx="64" cy="78" r="4" fill="url(#brainGradient)"/>
  </g>
  <!-- Company name below, optional for branding but NOT for favicon -->
  <text x="64" y="120" text-anchor="middle" font-size="18" font-family="Segoe UI, Arial, sans-serif" fill="#0F172A" font-weight="bold">MagBrainAI</text>
</svg>